PathFileType	4	(X/Y/Z)	2_coords_data.trc
DataRate	CameraRate	NumFrames	NumMarkers	Units	OrigDataRate	OrigDataStartFrame	OrigNumFrames
30.0	30.0	9	21	m	30.0	19	65
Frame#	Time	THUMB_TIP	THUMB_IP	THUMB_MCP	THUMB_CMC	INDEX_TIP	INDEX_DIP	INDEX_PIP	INDEX_MCP	MIDDLE_TIP	MIDDLE_DIP	MIDDLE_PIP	MIDDLE_MCP	RING_TIP	RING_DIP	RING_PIP	RING_MCP	PINKY_TIP	PINKY_DIP	PINKY_PIP	PINKY_MCP	WRIST
X1	Y1	Z1	X2	Y2	Z2	X3	Y3	Z3	X4	Y4	Z4	X5	Y5	Z5	X6	Y6	Z6	X7	Y7	Z7	X8	Y8	Z8	X9	Y9	Z9	X10	Y10	Z10	X11	Y11	Z11	X12	Y12	Z12	X13	Y13	Z13	X14	Y14	Z14	X15	Y15	Z15	X16	Y16	Z16	X17	Y17	Z17	X18	Y18	Z18	X19	Y19	Z19	X20	Y20	Z20	X21	Y21	Z21
17	0.5999999999999973	0.4730081309270199	-0.026466525329263524	-0.1750617632132555	0.47546252371615183	-0.029533617672688584	-0.152421778659516	0.474164638561262	-0.03253324290593962	-0.12146797852795282	0.47412516551692996	-0.030769439207931515	-0.07689469686288275	0.563704724168271	0.024020481538014837	-0.17910387446181109	0.5547964083258705	0.014833139382596894	-0.1662884676024361	0.5407157069393076	0.005674769478092645	-0.14758371039591994	0.5162249640812554	-0.007380431779961505	-0.11528198709247273	0.5950229101597202	0.044519961144412146	-0.1372280461099072	0.5824982479584742	0.03275417443100215	-0.13150973344276262	0.5600350048115073	0.01820856411933114	-0.11996687946373069	0.5245096215703489	0.001558679793145723	-0.09859221178225619	0.6055809300707236	0.03690806033840188	-0.09942781574538584	0.5904283656284356	0.027745051591653414	-0.09604564757550982	0.5683510982404714	0.017402803682548873	-0.09096508147841476	0.5325165655123258	0.0008995260272768313	-0.08211923924669484	0.5979407547787373	0.028067270196417526	-0.05307715240932842	0.58405986870943	0.018402513631879946	-0.05570650261026011	0.565665000296592	0.008925793078206623	-0.059260739887364355	0.5326436741110265	-0.00449685614264228	-0.06476600607897864	0.4622830810018609	-0.023011742144276925	-0.051989820119430985
18	0.6333333333333304	0.47311751616627684	-0.026400381711518817	-0.17506880521758467	0.4755282927005505	-0.029483109197324886	-0.15242625792824355	0.4741686328220539	-0.03249308829231656	-0.12147611494210336	0.47412376532220846	-0.030747737390005914	-0.07690211201287045	0.5637757526428502	0.02404551568457458	-0.17904595609656848	0.5548443794965305	0.014859813746484818	-0.16624543057509944	0.5407413103945602	0.005694518911486757	-0.14756092775879193	0.5162075141810756	-0.007361210493572967	-0.11529210585502436	0.595005489315269	0.04450009329402416	-0.13729689486877128	0.5824726734060071	0.03274810823091934	-0.13156807540389814	0.5599918193949984	0.018235519421722635	-0.12001794471239091	0.524505629655456	0.0015654098454346288	-0.09859399303479999	0.6055463240116241	0.036928274223186563	-0.09952270601694946	0.590399167625342	0.027762685925923902	-0.09612334658102728	0.5683266118771927	0.017420896928519114	-0.09102141929048269	0.5325069001898911	0.0009066502329170278	-0.08213610867602505	0.597937158929783	0.028099982329517492	-0.053212217404013606	0.5840596107553726	0.01842284155651408	-0.05581348692607224	0.5656645998262575	0.008936349309047076	-0.059340816901631954	0.5326394701083984	-0.004498945195567261	-0.06479215799285598	0.4622830810018609	-0.023011742144276925	-0.051989820119430985
19	0.6666666666666637	0.4731858714909346	-0.026282902891236026	-0.17508269063196347	0.4755490769875341	-0.029399208906745633	-0.15243972491193158	0.4741398165588234	-0.03245541509325178	-0.12149633161401363	0.4740901730061381	-0.030737342528733502	-0.07692127399003823	0.5638531163870549	0.02396812827956052	-0.17901991351139096	0.5548953386149107	0.014795492635200524	-0.16622847212581227	0.5407691936896377	0.005635550060012484	-0.14755878239701808	0.5161888751885855	-0.007402128135022834	-0.11531807856367199	0.5950697220592561	0.044289478796736725	-0.1373938171523002	0.5825137091076492	0.03257239525780331	-0.13164433960205835	0.5599930423300137	0.018127496769791862	-0.1200869166383633	0.5245228664965509	0.0014919133100738113	-0.09860967495564255	0.6056340623727736	0.03666891589252863	-0.09961204021130954	0.5904651269621086	0.02754259805760051	-0.09620414917975562	0.5683716975714324	0.01725621442237002	-0.09108060856138711	0.5325315767920017	0.0008065648035329165	-0.08215785091964212	0.5980497156833542	0.027853920490858997	-0.053386214053254055	0.5841532712365011	0.018195654961079555	-0.05595657175050128	0.5657271904638344	0.008756108386036465	-0.05944749237646163	0.5326659525185631	-0.004621012926412815	-0.06482249208978041	0.4622830810018609	-0.023011742144276925	-0.051989820119430985
20	0.6999999999999968	0.47331687413412793	-0.02627062234637345	-0.17508475035200577	0.4756397376159681	-0.02938424546420504	-0.1524372415193584	0.4741679041155805	-0.032444298847090436	-0.1214971416578352	0.47409874362668725	-0.030720854285182564	-0.07692231742185185	0.5638640819611055	0.024048176390288556	-0.17898570456897672	0.5549035369131707	0.014874640976131226	-0.16619684690110298	0.5407699406525728	0.005695521707706042	-0.14754222122277755	0.516163619394604	-0.0073637164253819165	-0.11533009078201129	0.5949855030550127	0.044390190512814565	-0.13746650061924237	0.5824379364421252	0.03267425853522066	-0.13169627445456378	0.5599154880497361	0.01823273572062656	-0.12013810473753106	0.5245041805264277	0.0015352273049153986	-0.09861183164633058	0.6055642536408555	0.03678976584580429	-0.09967922612533553	0.5904015937417479	0.027656192114780875	-0.09626285733904294	0.5683181235570408	0.017355976969966047	-0.09112419101676816	0.5325114782243904	0.000850749376281934	-0.08216972586788995	0.5980104390111816	0.027997458603157388	-0.053503665184047144	0.5841160117622951	0.01832911284162675	-0.056046887876005536	0.5656987414159826	0.008859865641907771	-0.05950369702049951	0.5326479857929705	-0.004560762172294841	-0.06483452742678553	0.4622830810018609	-0.023011742144276925	-0.051989820119430985
21	0.7333333333333302	0.47343163141965705	-0.02631597471879088	-0.17508285624487352	0.4757150768604217	-0.029424009748824642	-0.15243057169847207	0.47419450314453027	-0.032483643422143715	-0.12149278739901664	0.4740958393116691	-0.030736165715959274	-0.07691895441244845	0.5639539593632235	0.023976812737835917	-0.1789387833499122	0.5549796086238394	0.014802212366266665	-0.16616037433984687	0.5408257042832421	0.0056415897732524645	-0.14751205488136548	0.5161837379286766	-0.007411939014790536	-0.11532486838797656	0.5950132536550281	0.044307826904340986	-0.1375085653394943	0.5824588222121583	0.03260862160008937	-0.13171936449695504	0.559933030809684	0.018185070053562846	-0.12014527997692037	0.524522977828223	0.0015081579487269403	-0.09860098440946896	0.6056111053543655	0.03668609205795692	-0.0996912708968013	0.5904340482690908	0.027579176517090853	-0.09626767226935518	0.5683395812116594	0.01730231333872745	-0.0911295220514976	0.5325323203912108	0.0008103264637858709	-0.0821531488722489	0.5980550668727109	0.02791400845760117	-0.05353714940633003	0.5841463837381717	0.01826173754802518	-0.056063451001772346	0.5657210862688118	0.00880223155702875	-0.059504116427514964	0.5326586902370763	-0.004594135681321165	-0.06482377473007117	0.4622830810018609	-0.023011742144276925	-0.051989820119430985
22	0.7666666666666633	0.47359456252003107	-0.026334596853939574	-0.17508019297669797	0.4758293951669903	-0.029455371437270395	-0.15242481195937396	0.4742363440532871	-0.03251593516416573	-0.12149076699556854	0.47408495776554127	-0.03075741066724591	-0.07691751634245136	0.5641439943133673	0.023817197859241523	-0.17883525301040676	0.5551530373629237	0.014642181418178413	-0.16606882177761928	0.5409552704014422	0.0055056658908932965	-0.14744203111666154	0.5162512781717952	-0.00753707043027263	-0.11529804425793361	0.595147282192533	0.04411466425405375	-0.13744809205515807	0.5825809041631569	0.03242778784527012	-0.13165990900443908	0.5600276357669647	0.018036766633403256	-0.120098847499157	0.5245995265277937	0.0013909147814622491	-0.09856021678918359	0.6057447718348609	0.03644055344368213	-0.09958504806605006	0.590546719172119	0.02736260350917441	-0.09617770008747517	0.5684241687475438	0.017134067872636383	-0.09106401252914698	0.5325996186339983	0.0006686576115483289	-0.08210785776852958	0.5981443378965554	0.02766635044934196	-0.0534579456012817	0.5842223052344206	0.018034617322407964	-0.055989096234091984	0.5657784575354955	0.008613495229816137	-0.05943568288980372	0.5326995006831797	-0.004727715402935706	-0.06479088255136534	0.4622830810018609	-0.023011742144276925	-0.051989820119430985
23	0.7999999999999965	0.47367298028066074	-0.0264347011816769	-0.17507292183245482	0.47590635251784486	-0.029528374689090864	-0.15241368017083462	0.47429530609400294	-0.03256216971021375	-0.12147793034656118	0.47410018578945323	-0.0307707182717456	-0.07690616092004676	0.564157924884417	0.0238410632170184	-0.1788025860678764	0.5551857818775172	0.014648528825342622	-0.1660355205741305	0.5409872663285666	0.005510779006067668	-0.14740990602194592	0.5162854418296603	-0.007552994942409574	-0.11527279708775084	0.5949845183821549	0.04439077621610488	-0.13745841623280264	0.5824623202966611	0.0326647862428443	-0.13165361526682212	0.5599652495310621	0.018184925786253414	-0.12009398732621412	0.5246176895633601	0.0013992930844025642	-0.09853150926527998	0.6055995475278375	0.03677564507923181	-0.09953649187329217	0.5904388094912929	0.027634171377099448	-0.09613274676819183	0.5683586428503845	0.01731175797954221	-0.09102451794014887	0.532600832054017	0.0006921014514049695	-0.08208657533919594	0.5979733827445913	0.02801382548319742	-0.053353296240911785	0.5840984242355303	0.01831856755808492	-0.05590035339326904	0.5657010641583753	0.008815159070106549	-0.05936941498138304	0.5326906761132385	-0.004677634515693252	-0.0647677715239331	0.4622830810018609	-0.023011742144276925	-0.051989820119430985
24	0.8333333333333297	0.4736331655145687	-0.02659013679586797	-0.17507906660724537	0.475886989426351	-0.029635877845771597	-0.15241535686608398	0.4743092578578457	-0.032619304684681216	-0.12147299226034297	0.4740995272883082	-0.03078126673608539	-0.076903186005573	0.5641768924647422	0.02369364116262096	-0.17884284684228757	0.5552125751046115	0.014514260313349236	-0.16606082894639634	0.5410202945380153	0.005403222528530094	-0.14741738517110065	0.5163125699355531	-0.007605248146371535	-0.1152623835435293	0.594850524165667	0.04455230853985004	-0.13750904096968225	0.5823720308846044	0.0327860488686762	-0.13169162412154578	0.5599350770534167	0.01823201598943458	-0.12010832667534727	0.5246376976753221	0.0013824467137032448	-0.09851353690417342	0.6054626083946918	0.037043174064502304	-0.09955249954282808	0.5903383981595203	0.027848118162539626	-0.09613062699667518	0.568300780103201	0.017434840721392453	-0.09102308136912718	0.5326176376975245	0.0006637408339693618	-0.08206962446007215	0.5977943909550312	0.028339778564625773	-0.0532789804785363	0.5839743821293	0.018569003284819696	-0.0558361872531723	0.5656294840674658	0.008973559254737418	-0.05932963654670231	0.5326960749016616	-0.0046932259187474346	-0.0647603818675162	0.4622830810018609	-0.023011742144276925	-0.051989820119430985
25	0.8666666666666629	0.4736857958395304	-0.02673705106562163	-0.17508784107393366	0.4759388522504081	-0.029728987186176226	-0.15241688928403468	0.47435717025490476	-0.03264751115808617	-0.12146853714873529	0.4741111268581014	-0.030772341298460515	-0.07690046336666079	0.5643081958242543	0.023576120615911078	-0.17878789078978724	0.5553310391993433	0.014410329437850367	-0.16600513165836323	0.541120313937564	0.005318869403808102	-0.147366181178692	0.5163660632491005	-0.007628638540408961	-0.11522236054568158	0.5947820796202374	0.04468446529818171	-0.13748860239687533	0.5823475382733061	0.03287793021161678	-0.1316586872395879	0.5599598909207999	0.018265768330731347	-0.12005319193836855	0.524673505948956	0.001387476205942928	-0.09846286513284908	0.605378958321284	0.03725057023423761	-0.09952813960844098	0.5902930602469474	0.028003888946431688	-0.09607639157990944	0.5682836201641743	0.017529230751997527	-0.09097285731896876	0.5326293309325931	0.0006998770575182833	-0.08201376430589646	0.5976646369116972	0.028618442784089537	-0.053200680939120226	0.5838841302909857	0.018791538995405643	-0.0557559889840491	0.5655752334429791	0.009133746308918167	-0.059266452718924834	0.5327006585281638	-0.004671412298974831	-0.0647036736065777	0.4622830810018609	-0.023011742144276925	-0.051989820119430985
